<?xml version="1.0" encoding="utf-8"?>
<!-- Generator: Adobe Illustrator 24.3.0, SVG Export Plug-In . SVG Version: 6.00 Build 0)  -->
<svg version="1.1" id="Layer_1" xmlns="http://www.w3.org/2000/svg" xmlns:xlink="http://www.w3.org/1999/xlink" x="0px" y="0px"
	 viewBox="0 0 52.7 105.1" style="enable-background:new 0 0 52.7 105.1;" xml:space="preserve">
<style type="text/css">
	.st0{fill:none;stroke:#000000;stroke-miterlimit:10;}
</style>
<g>
	<g>
		<path d="M9.6,78C8.2,78,7,79.2,7,80.6s1.1,2.5,2.5,2.5s2.5-1.1,2.5-2.5S11,78,9.6,78L9.6,78z M9.6,82.1c-0.9,0-1.5-0.7-1.5-1.5
			S8.7,79,9.6,79c0.9,0,1.5,0.7,1.5,1.5c0,0,0,0,0,0C11.1,81.4,10.4,82.1,9.6,82.1z"/>
		<path d="M51.5,49.7h-4.7V32.1h1c1.3,0,2.3-1,2.3-2.3v0v-3c0-1.3-1-2.3-2.3-2.3h-5L42.7,2.7H7.4L7.3,24.4h-5C1,24.4,0,25.5,0,26.8
			v3c0,1.3,1,2.3,2.3,2.3h1v48.1c0,3.6,2.9,6.5,6.5,6.5h30.4c3.6,0,6.5-2.9,6.5-6.5V62.5h4.7c0.7,0,1.3-0.6,1.3-1.3V50.9
			C52.7,50.2,52.2,49.7,51.5,49.7z M8.4,3.7h33.2l0.1,20.6H8.3L8.4,3.7z M2.3,31.1c-0.7,0-1.3-0.6-1.3-1.3v-3c0-0.7,0.6-1.3,1.3-1.3
			h45.4c0.7,0,1.3,0.6,1.3,1.3v3c0,0.7-0.6,1.3-1.3,1.3l0,0H2.3z M45.8,80.2c0,3-2.5,5.5-5.5,5.5H9.9c-3,0-5.5-2.5-5.5-5.5V32.1
			h41.4V80.2z M51.8,61.2c0,0.1-0.1,0.3-0.3,0.3h-4.7V50.7h4.7c0.1,0,0.3,0.1,0.3,0.3L51.8,61.2z"/>
	</g>
	<circle class="st0" cx="25.1" cy="69.7" r="8.2"/>
	<circle class="st0" cx="25.1" cy="51" r="8.2"/>
	<circle class="st0" cx="25.1" cy="69.7" r="8.2"/>
</g>
</svg>
