<svg xmlns="http://www.w3.org/2000/svg" viewBox="0 0 52.73 105.0625" x="0px" y="0px"><title>TLR Camera0</title><g data-name="Layer 2"><g data-name="Layer 1"><path d="M30.19,52.47a9.79,9.79,0,1,0-10.27,0,13,13,0,1,0,10.27,0ZM25.05,76.38A12,12,0,0,1,21.27,53l1.19-.4-1.13-.53a8.79,8.79,0,1,1,7.45,0l-1.13.53,1.18.4a12,12,0,0,1-3.78,23.35Z"/><path d="M30.34,44.16a5.29,5.29,0,1,0-5.29,5.28A5.29,5.29,0,0,0,30.34,44.16Zm-9.57,0a4.29,4.29,0,1,1,4.28,4.28A4.29,4.29,0,0,1,20.77,44.16Z"/><path d="M9.57,75.34a2.54,2.54,0,1,0,2.54,2.54A2.54,2.54,0,0,0,9.57,75.34Zm0,4.07a1.54,1.54,0,1,1,1.54-1.53A1.54,1.54,0,0,1,9.57,79.41Z"/><path d="M25.05,55.22a9,9,0,1,0,9,9A9,9,0,0,0,25.05,55.22Zm0,17a8,8,0,1,1,8-8A8,8,0,0,1,25.05,72.24Z"/><path d="M51.47,47H46.75V29.45h1a2.33,2.33,0,0,0,2.33-2.33v-3a2.34,2.34,0,0,0-2.33-2.34h-5L42.66,0H7.45L7.32,21.74h-5A2.34,2.34,0,0,0,0,24.08v3a2.33,2.33,0,0,0,2.33,2.33h1V77.53a6.52,6.52,0,0,0,6.52,6.52H40.23a6.52,6.52,0,0,0,6.52-6.52V59.85h4.72a1.27,1.27,0,0,0,1.26-1.27V48.25A1.27,1.27,0,0,0,51.47,47ZM8.44,1H41.67l.12,20.62H8.32ZM2.33,28.45A1.33,1.33,0,0,1,1,27.12v-3a1.34,1.34,0,0,1,1.33-1.34H47.78a1.34,1.34,0,0,1,1.33,1.34v3a1.33,1.33,0,0,1-1.33,1.33H2.33ZM45.75,77.53a5.52,5.52,0,0,1-5.52,5.52H9.88a5.52,5.52,0,0,1-5.52-5.52V29.45H45.75V77.53Zm6-19a.27.27,0,0,1-.26.27H46.75V48h4.72a.27.27,0,0,1,.26.27Z"/></g></g><text x="0" y="99.05" fill="#000000" font-size="5px" font-weight="bold" font-family="'Helvetica Neue', Helvetica, Arial-Unicode, Arial, Sans-serif"></text><text x="0" y="104.05" fill="#000000" font-size="5px" font-weight="bold" font-family="'Helvetica Neue', Helvetica, Arial-Unicode, Arial, Sans-serif"></text></svg>