<svg xmlns:dc="http://purl.org/dc/elements/1.1/" xmlns:cc="http://creativecommons.org/ns#" 
xmlns:rdf="http://www.w3.org/1999/02/22-rdf-syntax-ns#" xmlns:svg="http://www.w3.org/2000/svg" 
xmlns="http://www.w3.org/2000/svg" xmlns:sodipodi="http://sodipodi.sourceforge.net/DTD/sodipodi-0.dtd" 
xmlns:inkscape="http://www.inkscape.org/namespaces/inkscape" version="1.1" x="0px" y="0px" viewBox="0 0 100 125">
<g transform="translate(0,-952.36218)">
<path style="text-indent:0;text-transform:none;direction:ltr;block-progression:tb;baseline-shift:baseline;color:#000000;enable-background:accumulate;" 
d="m 50,958.36216 c 24.2767,0 44,19.72326 44,43.99994 0,24.2768 -19.7233,44.0001 -44,44.0001 -24.2767,0 -44,-19.7233 
-44,-44.0001 0,-24.27667 19.7233,-43.99994 44,-43.99994 z m 0,4 c -0.7659,0 -1.5261,0.0202 -2.2812,0.0625 l 20.75,
35.93745 12.4062,-21.4687 C 73.5424,968.00585 62.4396,962.36216 50,962.36216 z m -6.625,0.53125 c -12.761,2.12357 
-23.462,10.27742 -29.0938,21.4375 l 41.4688,0 -12.375,-21.4375 z m 40.0938,17.53125 -20.75,35.90624 24.75,0 c 1.6215,
-4.3527 2.5312,-9.0463 2.5312,-13.9688 0,-8.10369 -2.4,-15.64153 -6.5312,-21.93744 z m -25.4063,7.90625 -16.125,0 
-8.0937,13.99999 8.0624,14 16.1876,0 8.0624,-13.9688 -8.0937,-14.03119 z m -20.75,0 -24.7813,0 C 10.9031,992.69131 
10,997.4293 10,1002.3621 c 0,8.1064 2.3976,15.6405 6.5312,21.9376 l 20.7813,-35.96879 z m -5.7813,18.03129 -12.4062,
21.4375 c 7.3326,8.8875 18.4354,14.5625 30.875,14.5625 0.7545,0 1.5059,-0.021 2.25,-0.062 l -20.7188,-35.9375 z m 
54.2188,13.9687 -41.5312,0 12.375,21.4688 c 12.7888,-2.1181 23.5251,-10.2804 29.1562,-21.4688 z" 
fill="#52535f" fill-opacity="1" stroke="none" marker="none" visibility="visible" display="inline" overflow="visible"/></g><text x="0" y="115" fill="#000000" font-size="5px" font-weight="bold" font-family="'Helvetica Neue', Helvetica, Arial-Unicode, Arial, Sans-serif"></text><text x="0" y="120" fill="#000000" font-size="5px" font-weight="bold" font-family="'Helvetica Neue', Helvetica, Arial-Unicode, Arial, Sans-serif"></text></svg>