<svg xmlns="http://www.w3.org/2000/svg" xmlns:xlink="http://www.w3.org/1999/xlink" version="1.1" x="0px" y="0px" viewBox="0 0 64 80" enable-background="new 0 0 64 64" xml:space="preserve"><g display="none"><g display="inline"><path fill="#000000" d="M7,16v44c0,0.552,0.448,1,1,1h36c0.552,0,1-0.448,1-1V16c0-0.552-0.448-1-1-1H8C7.448,15,7,15.448,7,16z"/><path fill="#000000" d="M12,47V21c0-0.552,0.448-1,1-1h26c0.552,0,1,0.448,1,1v26c0,0.552-0.448,1-1,1H13    C12.448,48,12,47.552,12,47z"/><polygon fill="#000000" points="12,42 18,36 24,42 32,33 40,42 40,48 12,48   "/><circle fill="#000000" cx="23" cy="29" r="3"/><path fill="#000000" d="M48,55h3V10c0-0.552-0.448-1-1-1H13v3h35L48,55z"/><path fill="#000000" d="M19,6V3h37c0.552,0,1,0.448,1,1v45h-3V6L19,6z"/></g></g><g display="none"><g display="inline"><polygon fill="#000000" points="13,12 13,9 51,9 51,55 48,55 48,12   "/><polygon fill="#000000" points="19,6 19,3 57,3 57,49 54,49 54,6   "/><rect x="7" y="15" fill="#000000" width="38" height="46"/><polygon fill="#000000" points="24,42 18,36 12,42 12,48 40,48 40,42 32,33   "/><path d="M45,62H7c-0.552,0-1-0.448-1-1V15c0-0.552,0.448-1,1-1h15v2H8v44h36V16H28v-2h17c0.552,0,1,0.448,1,1v46    C46,61.552,45.552,62,45,62z"/><rect x="24" y="14" width="2" height="2"/><rect x="30" y="47" width="2" height="2"/><path d="M40,49h-6v-2h5V21H13v26h15v2H12c-0.552,0-1-0.448-1-1V20c0-0.552,0.448-1,1-1h28c0.552,0,1,0.448,1,1v28    C41,48.552,40.552,49,40,49z"/><path d="M24,43c-0.265,0-0.52-0.105-0.707-0.293L18,37.414l-5.293,5.293l-1.414-1.414l6-6c0.391-0.391,1.023-0.391,1.414,0    l5.25,5.25l7.295-8.208c0.38-0.427,1.115-0.427,1.495,0l8,9l-1.495,1.329L32,34.505l-7.252,8.159    c-0.183,0.206-0.443,0.327-0.718,0.335C24.02,43,24.01,43,24,43z"/><g><circle fill="#000000" cx="23" cy="29" r="3"/><path d="M23,33c-2.206,0-4-1.794-4-4s1.794-4,4-4s4,1.794,4,4S25.206,33,23,33z M23,27c-1.103,0-2,0.897-2,2s0.897,2,2,2     s2-0.897,2-2S24.103,27,23,27z"/></g></g><polyline display="inline" fill="none" stroke="#000000" stroke-width="2" stroke-linejoin="round" stroke-miterlimit="10" points="   13,12 13,9 51,9 51,55 48,55  "/><polyline display="inline" fill="none" stroke="#000000" stroke-width="2" stroke-linejoin="round" stroke-miterlimit="10" points="   19,6 19,3 57,3 57,49 54,49  "/></g><g><g><path d="M45,62H7c-0.552,0-1-0.448-1-1V15c0-0.552,0.448-1,1-1h15v2H8v44h36V16H28v-2h17c0.552,0,1,0.448,1,1v46    C46,61.552,45.552,62,45,62z"/><rect x="24" y="14" width="2" height="2"/><rect x="30" y="47" width="2" height="2"/><path d="M40,49h-6v-2h5V21H13v26h15v2H12c-0.552,0-1-0.448-1-1V20c0-0.552,0.448-1,1-1h28c0.552,0,1,0.448,1,1v28    C41,48.552,40.552,49,40,49z"/><path d="M24,43c-0.265,0-0.52-0.105-0.707-0.293L18,37.414l-5.293,5.293l-1.414-1.414l6-6c0.391-0.391,1.023-0.391,1.414,0    l5.25,5.25l7.295-8.208c0.38-0.427,1.115-0.427,1.495,0l8,9l-1.495,1.329L32,34.505l-7.252,8.159    c-0.183,0.206-0.443,0.327-0.718,0.335C24.02,43,24.01,43,24,43z"/><path d="M23,33c-2.206,0-4-1.794-4-4s1.794-4,4-4s4,1.794,4,4S25.206,33,23,33z M23,27c-1.103,0-2,0.897-2,2s0.897,2,2,2    s2-0.897,2-2S24.103,27,23,27z"/><path d="M51,56h-3v-2h2V10H14v2h-2V9c0-0.552,0.448-1,1-1h38c0.552,0,1,0.448,1,1v46C52,55.552,51.552,56,51,56z"/><path d="M57,50h-3v-2h2V4H20v2h-2V3c0-0.552,0.448-1,1-1h38c0.552,0,1,0.448,1,1v46C58,49.552,57.552,50,57,50z"/></g></g><g display="none"><g display="inline"><polyline fill="none" stroke="#000000" stroke-width="2" stroke-linejoin="round" stroke-miterlimit="10" points="28,15 45,15     45,61 7,61 7,15 22,15   "/><line fill="none" stroke="#000000" stroke-width="2" stroke-linejoin="round" stroke-miterlimit="10" x1="24" y1="15" x2="26" y2="15"/><line fill="none" stroke="#000000" stroke-width="2" stroke-linejoin="round" stroke-miterlimit="10" x1="32" y1="48" x2="30" y2="48"/><polyline fill="none" stroke="#000000" stroke-width="2" stroke-linejoin="round" stroke-miterlimit="10" points="28,48 12,48     12,20 40,20 40,48 34,48   "/><polyline fill="none" stroke="#000000" stroke-width="2" stroke-linejoin="round" stroke-miterlimit="10" points="12,42 18,36     24,42 32,33 40,42   "/><circle fill="none" stroke="#000000" stroke-width="2" stroke-linejoin="round" stroke-miterlimit="10" cx="23" cy="29" r="3"/><polyline fill="none" stroke="#000000" stroke-width="2" stroke-linejoin="round" stroke-miterlimit="10" points="13,12 13,9     51,9 51,55 48,55   "/><polyline fill="none" stroke="#000000" stroke-width="2" stroke-linejoin="round" stroke-miterlimit="10" points="19,6 19,3 57,3     57,49 54,49   "/></g></g><text x="0" y="79" fill="#000000" font-size="5px" font-weight="bold" font-family="'Helvetica Neue', Helvetica, Arial-Unicode, Arial, Sans-serif"></text><text x="0" y="84" fill="#000000" font-size="5px" font-weight="bold" font-family="'Helvetica Neue', Helvetica, Arial-Unicode, Arial, Sans-serif"></text></svg>